<?xml version="1.0" encoding="utf-8"?>
<!-- Generator: Adobe Illustrator 27.5.0, SVG Export Plug-In . SVG Version: 6.00 Build 0)  -->
<svg version="1.1" xmlns="http://www.w3.org/2000/svg" xmlns:xlink="http://www.w3.org/1999/xlink" x="0px" y="0px"
	 viewBox="0 0 500 500" style="enable-background:new 0 0 500 500;" xml:space="preserve">
<g id="BACKGROUND">
	<rect y="0" style="fill:#FAFAFA;" width="500" height="500"/>
</g>
<g id="OBJECTS">
	<g>
		<g>
			<g>
				<path style="fill:#5D38A1;" d="M287.299,442.806c-13.772,0-27.186-5.32-37.299-15.131
					c-13.508,13.101-32.905,18.197-51.172,13.301c-18.269-4.895-32.519-19.004-37.666-37.105
					c-18.247,4.591-37.593-0.693-50.966-14.068c-13.374-13.373-18.66-32.717-14.067-50.966c-18.1-5.147-32.209-19.396-37.104-37.666
					c-4.895-18.268,0.199-37.664,13.301-51.171c-13.102-13.508-18.196-32.904-13.301-51.172
					c4.895-18.269,19.004-32.519,37.104-37.666c-4.593-18.248,0.694-37.593,14.067-50.966
					c13.373-13.374,32.716-18.661,50.966-14.067c5.147-18.1,19.397-32.209,37.666-37.104c18.269-4.894,37.665,0.198,51.172,13.301
					c13.507-13.101,32.903-18.199,51.172-13.301c18.269,4.895,32.519,19.004,37.666,37.104c18.248-4.594,37.593,0.693,50.966,14.067
					c13.373,13.373,18.66,32.717,14.068,50.966c18.1,5.147,32.209,19.397,37.104,37.666c4.895,18.269-0.198,37.665-13.3,51.172
					c13.101,13.507,18.195,32.903,13.3,51.172c-4.895,18.269-19.004,32.52-37.104,37.666c4.592,18.249-0.694,37.593-14.068,50.966
					c-13.375,13.375-32.721,18.659-50.966,14.068c-5.147,18.101-19.397,32.21-37.666,37.105
					C296.582,442.207,291.919,442.805,287.299,442.806z M250,421.396l1.585,1.671c12.442,13.118,31.01,18.361,48.457,13.69
					c17.447-4.675,30.904-18.502,35.119-36.084l0.538-2.24l2.207,0.655c17.338,5.137,36.037,0.399,48.81-12.373
					c12.772-12.772,17.512-31.474,12.373-48.81l-0.655-2.207l2.239-0.538c17.581-4.215,31.408-17.672,36.083-35.119
					c4.674-17.447-0.57-36.014-13.689-48.457L421.396,250l1.671-1.585c13.118-12.442,18.363-31.009,13.689-48.457
					c-4.675-17.446-18.502-30.904-36.084-35.119l-2.238-0.537l0.655-2.208c5.139-17.336,0.399-36.038-12.373-48.81
					c-12.772-12.772-31.473-17.513-48.81-12.372l-2.207,0.655l-0.538-2.239c-4.215-17.583-17.672-31.409-35.119-36.084
					c-17.447-4.674-36.015,0.571-48.457,13.69L250,78.604l-1.585-1.671c-12.442-13.119-31.011-18.365-48.456-13.69
					c-17.447,4.675-30.903,18.502-35.12,36.084l-0.537,2.239l-2.208-0.655c-17.337-5.14-36.038-0.399-48.81,12.372
					c-12.772,12.772-17.513,31.475-12.372,48.81l0.655,2.208l-2.24,0.537c-17.582,4.216-31.409,17.673-36.084,35.119
					c-4.675,17.447,0.571,36.014,13.691,48.457L78.604,250l-1.671,1.585c-13.119,12.442-18.365,31.009-13.691,48.456
					c4.675,17.447,18.502,30.904,36.084,35.119l2.24,0.538l-0.655,2.207c-5.14,17.335-0.399,36.038,12.372,48.81
					c12.773,12.772,31.477,17.513,48.81,12.373l2.208-0.655l0.537,2.238c4.216,17.583,17.673,31.41,35.12,36.085
					c17.445,4.674,36.014-0.571,48.456-13.69L250,421.396z"/>
			</g>
			<g>
				<path style="fill:#5D38A1;" d="M213.986,435.966c-4.446,0-8.928-0.576-13.344-1.76c-17.633-4.725-31.375-18.377-36.281-35.875
					c-17.609,4.501-36.3-0.575-49.209-13.483c-12.909-12.908-17.983-31.602-13.484-49.209c-17.498-4.906-31.15-18.648-35.874-36.28
					c-4.725-17.634,0.227-36.36,12.927-49.358c-12.7-12.998-17.652-31.725-12.927-49.358c4.724-17.633,18.376-31.375,35.874-36.281
					c-4.499-17.606,0.575-36.3,13.484-49.209c12.908-12.909,31.601-17.984,49.209-13.484c4.906-17.498,18.648-31.15,36.281-35.874
					c17.633-4.725,36.36,0.227,49.358,12.927c13-12.701,31.73-17.65,49.358-12.927c17.633,4.724,31.375,18.376,36.28,35.874
					c17.609-4.498,36.3,0.575,49.209,13.484c12.909,12.908,17.983,31.602,13.484,49.209c17.497,4.906,31.149,18.648,35.874,36.281
					c4.725,17.634-0.227,36.36-12.928,49.358c12.7,12.997,17.653,31.724,12.928,49.358c-4.725,17.634-18.377,31.376-35.874,36.281
					c4.5,17.607-0.575,36.301-13.484,49.209c-12.909,12.908-31.603,17.982-49.209,13.483c-4.906,17.498-18.648,31.15-36.28,35.875
					c-17.633,4.723-36.359-0.226-49.358-12.927C240.257,430.8,227.294,435.965,213.986,435.966z M167.111,393.568l0.47,1.959
					c4.088,17.048,17.135,30.454,34.051,34.987c16.915,4.532,34.918-0.553,46.982-13.273l1.386-1.462l1.386,1.462
					c12.066,12.719,30.072,17.804,46.982,13.273c16.916-4.532,29.964-17.939,34.051-34.987l0.47-1.959l1.932,0.573
					c16.803,4.985,34.94,0.388,47.323-11.995c12.383-12.383,16.981-30.516,11.996-47.324l-0.573-1.931l1.959-0.47
					c17.047-4.087,30.453-17.135,34.986-34.052c4.532-16.916-0.553-34.918-13.273-46.981L415.778,250l1.462-1.386
					c12.72-12.064,17.805-30.066,13.273-46.982c-4.532-16.916-17.939-29.963-34.986-34.051l-1.959-0.47l0.573-1.932
					c4.983-16.808,0.387-34.941-11.996-47.324c-12.384-12.383-30.516-16.977-47.324-11.996l-1.931,0.573l-0.47-1.959
					c-4.087-17.048-17.135-30.453-34.051-34.986c-16.918-4.534-34.918,0.553-46.982,13.273L250,84.222l-1.387-1.462
					c-12.063-12.719-30.065-17.805-46.981-13.273c-16.916,4.532-29.963,17.938-34.051,34.986l-0.47,1.959l-1.932-0.573
					c-16.808-4.984-34.941-0.388-47.324,11.996c-12.383,12.383-16.979,30.517-11.996,47.324l0.573,1.932l-1.959,0.47
					c-17.048,4.088-30.453,17.135-34.986,34.051c-4.533,16.916,0.553,34.918,13.273,46.982L84.222,250l-1.462,1.386
					c-12.719,12.064-17.805,30.066-13.273,46.982c4.532,16.916,17.938,29.964,34.986,34.05l1.959,0.47l-0.573,1.931
					c-4.984,16.807-0.387,34.941,11.996,47.324c12.384,12.383,30.517,16.98,47.324,11.995L167.111,393.568z"/>
			</g>
			<g>
				<path style="fill:#5D38A1;" d="M215.273,429.124c-4.27,0.001-8.575-0.553-12.816-1.689c-17-4.555-30.233-17.748-34.897-34.645
					c-16.967,4.408-35.008-0.456-47.451-12.9c-12.445-12.444-17.308-30.485-12.899-47.451
					c-16.897-4.664-30.091-17.897-34.645-34.895c-4.555-17,0.254-35.057,12.555-47.544c-12.301-12.488-17.11-30.545-12.555-47.544
					c4.555-17,17.748-30.233,34.645-34.897c-4.41-16.965,0.454-35.007,12.899-47.451c12.444-12.445,30.485-17.308,47.451-12.899
					c4.664-16.897,17.897-30.09,34.897-34.645c17.001-4.557,35.056,0.254,47.543,12.555c12.489-12.3,30.545-17.109,47.544-12.555
					c16.999,4.555,30.233,17.748,34.896,34.645c16.968-4.409,35.007,0.454,47.451,12.899c12.444,12.445,17.308,30.487,12.899,47.451
					c16.897,4.664,30.09,17.897,34.646,34.897c4.555,16.999-0.254,35.056-12.555,47.543c12.301,12.489,17.11,30.545,12.555,47.545
					c-4.556,16.998-17.749,30.232-34.646,34.895c4.41,16.966-0.453,35.008-12.899,47.451c-12.444,12.445-30.484,17.307-47.451,12.9
					c-4.664,16.897-17.897,30.09-34.897,34.645c-16.995,4.554-35.055-0.253-47.543-12.555
					C240.628,424.112,228.118,429.124,215.273,429.124z M169.919,388.704l0.403,1.68c3.959,16.513,16.597,29.497,32.982,33.886
					c16.386,4.392,33.823-0.534,45.507-12.856l1.189-1.253l1.188,1.253c11.686,12.322,29.127,17.245,45.507,12.856
					c16.386-4.389,29.023-17.374,32.983-33.886l0.403-1.68l1.656,0.491c16.276,4.83,33.844,0.373,45.838-11.62
					c11.995-11.994,16.447-29.559,11.619-45.838l-0.491-1.656l1.68-0.403c16.512-3.959,29.497-16.597,33.887-32.982
					c4.391-16.385-0.535-33.822-12.856-45.507L410.161,250l1.253-1.189c12.321-11.685,17.246-29.122,12.856-45.507
					c-4.391-16.385-17.376-29.023-33.887-32.982l-1.68-0.403l0.491-1.656c4.828-16.279,0.375-33.844-11.619-45.839
					c-11.995-11.995-29.561-16.447-45.838-11.619l-1.656,0.491l-0.403-1.68c-3.959-16.512-16.597-29.497-32.983-33.888
					c-16.381-4.389-33.82,0.536-45.507,12.857L250,89.839l-1.189-1.253c-11.684-12.32-29.121-17.246-45.507-12.857
					c-16.385,4.391-29.023,17.376-32.982,33.888l-0.403,1.68l-1.656-0.491c-16.282-4.828-33.845-0.375-45.839,11.619
					c-11.995,11.995-16.447,29.559-11.619,45.839l0.491,1.656l-1.68,0.403c-16.512,3.959-29.497,16.597-33.888,32.982
					c-4.39,16.385,0.536,33.822,12.856,45.507L89.839,250l-1.253,1.188c-12.321,11.685-17.247,29.122-12.856,45.507
					c4.39,16.385,17.375,29.023,33.888,32.982l1.68,0.403l-0.491,1.656c-4.828,16.279-0.375,33.844,11.619,45.838
					c11.994,11.995,29.558,16.449,45.839,11.62L169.919,388.704z"/>
			</g>
			<g>
				<path style="fill:#5D38A1;" d="M283.442,422.285c-12.384,0-24.441-4.859-33.443-13.805
					c-11.977,11.905-29.365,16.572-45.73,12.184c-16.365-4.384-29.089-17.12-33.51-33.416c-16.325,4.318-33.716-0.332-45.695-12.313
					c-11.98-11.979-16.632-29.371-12.313-45.695c-16.296-4.422-29.031-17.145-33.416-33.511
					C74.95,279.365,79.617,261.978,91.519,250c-11.903-11.978-16.569-29.365-12.184-45.73c4.385-16.365,17.12-29.089,33.416-33.51
					c-4.319-16.324,0.333-33.715,12.313-45.695c11.979-11.981,29.37-16.633,45.695-12.313c4.422-16.296,17.146-29.031,33.51-33.416
					c16.367-4.387,33.752,0.281,45.73,12.184c11.977-11.902,29.364-16.57,45.729-12.185c16.367,4.386,29.09,17.121,33.512,33.417
					c16.322-4.32,33.716,0.333,45.695,12.313c11.98,11.981,16.632,29.372,12.312,45.695c16.296,4.421,29.032,17.145,33.417,33.51
					v0.001c4.385,16.365-0.283,33.752-12.184,45.729c11.902,11.978,16.569,29.365,12.184,45.73
					c-4.385,16.366-17.121,29.089-33.417,33.511c4.32,16.323-0.332,33.713-12.312,45.695c-11.98,11.98-29.373,16.632-45.695,12.313
					c-4.421,16.296-17.146,29.032-33.512,33.416C291.665,421.754,287.534,422.285,283.442,422.285z M250,404.544l0.991,1.044
					c11.305,11.921,28.176,16.691,44.032,12.44c15.855-4.248,28.083-16.811,31.913-32.789l0.336-1.4l1.38,0.41
					c15.753,4.669,32.747,0.361,44.353-11.243c11.606-11.607,15.913-28.602,11.242-44.353l-0.41-1.38l1.4-0.336
					c15.976-3.83,28.541-16.059,32.79-31.912c4.248-15.854-0.519-32.727-12.441-44.033l-1.044-0.99l1.044-0.99
					c11.922-11.306,16.688-28.179,12.441-44.032c-4.249-15.854-16.814-28.083-32.79-31.914l-1.4-0.335l0.41-1.38
					c4.671-15.751,0.364-32.746-11.242-44.353c-11.606-11.605-28.602-15.914-44.353-11.244l-1.38,0.41l-0.336-1.4
					c-3.831-15.977-16.059-28.541-31.913-32.789c-15.859-4.247-32.727,0.519-44.032,12.44L250,95.456l-0.99-1.044
					c-11.307-11.922-28.181-16.69-44.032-12.44c-15.854,4.248-28.083,16.812-31.914,32.789l-0.335,1.4l-1.38-0.41
					c-15.753-4.671-32.747-0.363-44.353,11.244c-11.606,11.606-15.914,28.601-11.243,44.353l0.41,1.38l-1.4,0.335
					c-15.977,3.831-28.541,16.06-32.789,31.914c-4.249,15.854,0.518,32.726,12.44,44.033l1.044,0.99l-1.044,0.991
					c-11.922,11.306-16.688,28.179-12.44,44.032c4.248,15.854,16.812,28.082,32.789,31.912l1.4,0.336l-0.41,1.38
					c-4.671,15.752-0.362,32.747,11.243,44.353c11.606,11.605,28.599,15.91,44.353,11.243l1.38-0.41l0.335,1.4
					c3.831,15.978,16.06,28.541,31.914,32.789c15.853,4.244,32.726-0.518,44.032-12.44L250,404.544z"/>
			</g>
			<g>
				<path style="fill:#865DD3;" d="M217.841,415.445c-3.917,0-7.866-0.508-11.757-1.551c-15.731-4.215-27.947-16.494-32.124-32.19
					c-15.683,4.229-32.424-0.209-43.939-11.725c-11.517-11.517-15.956-28.258-11.726-43.94
					c-15.695-4.177-27.974-16.393-32.19-32.124C81.89,278.185,86.416,261.467,97.92,250c-11.504-11.466-16.03-28.185-11.815-43.916
					c4.215-15.731,16.494-27.947,32.19-32.124c-4.229-15.682,0.21-32.424,11.726-43.939c11.515-11.517,28.26-15.957,43.939-11.726
					c4.178-15.696,16.393-27.974,32.124-32.189c15.729-4.217,32.449,0.31,43.915,11.815c11.466-11.503,28.187-16.029,43.916-11.815
					c15.731,4.215,27.946,16.494,32.123,32.189c15.681-4.228,32.423,0.21,43.94,11.726c11.516,11.516,15.955,28.258,11.726,43.939
					c15.696,4.178,27.975,16.393,32.191,32.124l0,0c4.215,15.732-0.311,32.45-11.815,43.915
					c11.504,11.466,16.03,28.184,11.815,43.916c-4.216,15.731-16.495,27.947-32.191,32.124c4.23,15.682-0.209,32.423-11.726,43.94
					c-11.517,11.515-28.257,15.954-43.94,11.725c-4.177,15.696-16.392,27.975-32.123,32.19
					c-15.731,4.212-32.451-0.313-43.916-11.814C241.37,410.739,229.762,415.444,217.841,415.445z"/>
			</g>
		</g>
		<g>
			<path style="fill:#865DD3;" d="M282.064,60.272C272.545,47.703,255.866,40.686,250,26.051
				c-5.866,14.635-22.545,21.652-32.064,34.221c-6.35,8.384-9.268,19.291-7.954,29.726c1.314,10.435,6.846,20.277,15.077,26.825
				c6.483,5.158,16.971,8.233,24.941,5.97c7.97,2.263,18.457-0.813,24.941-5.97c8.231-6.548,13.763-16.39,15.077-26.825
				C291.332,79.563,288.414,68.656,282.064,60.272z"/>
			<path style="fill:#A57BF5;" d="M271.88,77.419c-6.496-8.577-17.877-13.365-21.88-23.352c-4.003,9.987-15.384,14.775-21.88,23.352
				c-4.333,5.721-6.324,13.164-5.428,20.285c0.897,7.121,4.672,13.837,10.288,18.305c4.424,3.519,11.581,5.618,17.019,4.074
				c5.438,1.544,12.595-0.555,17.019-4.074c5.617-4.468,9.391-11.184,10.288-18.305C278.205,90.583,276.213,83.14,271.88,77.419z"/>
			<path style="fill:#B994FF;" d="M266.275,83.311c-4.832-6.38-13.297-9.941-16.274-17.369c-2.977,7.428-11.443,10.99-16.274,17.369
				c-3.223,4.256-4.704,9.791-4.037,15.088c0.667,5.296,3.475,10.292,7.652,13.615c3.291,2.618,8.614,4.179,12.659,3.031
				c4.045,1.148,9.368-0.413,12.659-3.031c4.178-3.323,6.985-8.319,7.652-13.615C270.979,93.103,269.497,87.567,266.275,83.311z"/>
			<path style="fill:#C7ABFF;" d="M261.604,92.528c-3.445-4.549-9.481-7.088-11.604-12.384c-2.123,5.296-8.159,7.836-11.604,12.384
				c-2.298,3.034-3.354,6.981-2.878,10.758c0.476,3.776,2.478,7.338,5.456,9.708c2.346,1.867,6.142,2.98,9.026,2.161
				c2.884,0.819,6.68-0.294,9.026-2.161c2.979-2.369,4.981-5.931,5.456-9.708S263.902,95.562,261.604,92.528z"/>
			<g>
				<path style="fill:#A57BF5;" d="M246.289,45.189c0.578,1.718,2.555,2.888,4.305,2.415c0.72-0.195,1.358-0.627,1.897-1.144
					c0.771-0.74,1.377-1.707,1.474-2.772C254.462,38.227,244.241,39.103,246.289,45.189z"/>
				<g>
					<g>
						<path style="fill:#A57BF5;" d="M234.999,55.133c0.473,1.406,2.091,2.363,3.523,1.976c0.589-0.16,1.111-0.513,1.552-0.936
							c0.631-0.606,1.127-1.397,1.206-2.268C241.688,49.436,233.324,50.153,234.999,55.133z"/>
						<path style="fill:#A57BF5;" d="M223.498,66.784c0.473,1.406,2.091,2.364,3.523,1.976c0.589-0.159,1.111-0.513,1.552-0.936
							c0.631-0.606,1.127-1.397,1.206-2.268C230.186,61.088,221.822,61.804,223.498,66.784z"/>
						<path style="fill:#A57BF5;" d="M216.293,79.925c0.339,1.007,1.498,1.693,2.524,1.416c0.422-0.114,0.796-0.368,1.112-0.671
							c0.452-0.434,0.807-1.001,0.864-1.625C221.084,75.845,215.093,76.358,216.293,79.925z"/>
						<path style="fill:#A57BF5;" d="M215.098,93.465c0.339,1.007,1.498,1.693,2.524,1.416c0.422-0.114,0.796-0.368,1.112-0.671
							c0.452-0.434,0.807-1.001,0.864-1.625C219.889,89.385,213.898,89.898,215.098,93.465z"/>
					</g>
					<g>
						<path style="fill:#A57BF5;" d="M265.001,55.133c-0.473,1.406-2.091,2.363-3.523,1.976c-0.589-0.16-1.111-0.513-1.552-0.936
							c-0.631-0.606-1.127-1.397-1.206-2.268C258.313,49.436,266.676,50.153,265.001,55.133z"/>
						<path style="fill:#A57BF5;" d="M276.502,66.784c-0.473,1.406-2.091,2.364-3.523,1.976c-0.589-0.159-1.111-0.513-1.552-0.936
							c-0.631-0.606-1.127-1.397-1.206-2.268C269.814,61.088,278.178,61.804,276.502,66.784z"/>
						<path style="fill:#A57BF5;" d="M283.707,79.925c-0.339,1.007-1.498,1.693-2.524,1.416c-0.422-0.114-0.796-0.368-1.112-0.671
							c-0.452-0.434-0.807-1.001-0.864-1.625C278.916,75.845,284.908,76.358,283.707,79.925z"/>
						<path style="fill:#A57BF5;" d="M284.902,93.465c-0.339,1.007-1.498,1.693-2.524,1.416c-0.422-0.114-0.796-0.368-1.112-0.671
							c-0.452-0.434-0.807-1.001-0.864-1.625C280.111,89.385,286.103,89.898,284.902,93.465z"/>
					</g>
				</g>
			</g>
		</g>
		<g>
			<path style="fill:#865DD3;" d="M182.904,69.659c-14.528-6.126-32.481-3.863-44.878-13.604
				c2.237,15.608-8.699,30.023-10.658,45.668c-1.307,10.436,1.619,21.34,7.975,29.72c6.356,8.38,16.068,14.138,26.469,15.693
				c8.193,1.225,18.814-1.355,24.585-7.3c8.033-2.025,15.578-9.933,18.614-17.641c3.854-9.786,3.724-21.075-0.355-30.77
				C200.576,81.731,192.595,73.745,182.904,69.659z"/>
			<path style="fill:#A57BF5;" d="M182.658,89.6c-9.914-4.18-22.165-2.636-30.625-9.283c1.527,10.65-5.936,20.488-7.273,31.163
				c-0.892,7.121,1.105,14.563,5.442,20.281c4.337,5.718,10.964,9.647,18.063,10.708c5.591,0.836,12.839-0.925,16.776-4.981
				c5.482-1.382,10.63-6.778,12.702-12.038c2.63-6.678,2.541-14.382-0.243-20.997C194.717,97.838,189.271,92.389,182.658,89.6z"/>
			<path style="fill:#B994FF;" d="M180.75,97.506c-7.374-3.109-16.486-1.961-22.779-6.905c1.136,7.922-4.415,15.239-5.41,23.179
				c-0.663,5.297,0.822,10.832,4.048,15.085c3.226,4.253,8.155,7.176,13.435,7.965c4.159,0.622,9.549-0.688,12.478-3.705
				c4.077-1.028,7.907-5.041,9.448-8.954c1.956-4.967,1.89-10.697-0.18-15.617C189.719,103.633,185.669,99.58,180.75,97.506z"/>
			<path style="fill:#C7ABFF;" d="M181.313,107.823c-5.258-2.217-11.755-1.398-16.241-4.923c0.81,5.648-3.148,10.865-3.857,16.527
				c-0.473,3.777,0.586,7.723,2.886,10.756c2.3,3.033,5.815,5.116,9.579,5.679c2.965,0.443,6.809-0.49,8.897-2.642
				c2.907-0.733,5.638-3.595,6.736-6.384c1.395-3.541,1.348-7.627-0.129-11.135C187.709,112.192,184.82,109.302,181.313,107.823z"/>
			<g>
				<path style="fill:#A57BF5;" d="M144.38,74.483c1.36,1.199,3.657,1.224,4.936-0.061c0.526-0.529,0.863-1.223,1.07-1.939
					c0.298-1.027,0.339-2.167-0.109-3.137C147.978,64.368,139.564,70.237,144.38,74.483z"/>
				<g>
					<g>
						<path style="fill:#A57BF5;" d="M139.576,88.74c1.113,0.981,2.992,1.002,4.039-0.05c0.431-0.433,0.706-1,0.876-1.587
							c0.244-0.84,0.277-1.773-0.09-2.567C142.519,80.463,135.635,85.266,139.576,88.74z"/>
						<path style="fill:#A57BF5;" d="M135.44,104.581c1.113,0.981,2.992,1.001,4.039-0.05c0.431-0.433,0.706-1,0.876-1.587
							c0.244-0.84,0.277-1.773-0.09-2.567C138.384,96.304,131.499,101.107,135.44,104.581z"/>
						<path style="fill:#A57BF5;" d="M135.771,119.564c0.797,0.703,2.144,0.717,2.893-0.036c0.309-0.31,0.506-0.716,0.628-1.136
							c0.175-0.602,0.199-1.27-0.064-1.839C137.88,113.635,132.948,117.076,135.771,119.564z"/>
						<path style="fill:#A57BF5;" d="M141.507,131.888c0.797,0.703,2.144,0.717,2.893-0.036c0.309-0.31,0.506-0.717,0.628-1.137
							c0.175-0.602,0.199-1.27-0.064-1.839C143.615,125.959,138.684,129.399,141.507,131.888z"/>
					</g>
					<g>
						<path style="fill:#A57BF5;" d="M165.557,73.74c0.293,1.454-0.629,3.092-2.063,3.473c-0.59,0.157-1.219,0.111-1.812-0.035
							c-0.85-0.209-1.674-0.646-2.179-1.361C156.917,72.151,164.519,68.59,165.557,73.74z"/>
						<path style="fill:#A57BF5;" d="M181.344,78.079c0.293,1.454-0.629,3.092-2.063,3.473c-0.59,0.157-1.219,0.111-1.812-0.035
							c-0.85-0.209-1.674-0.646-2.179-1.361C172.703,76.49,180.305,72.929,181.344,78.079z"/>
						<path style="fill:#A57BF5;" d="M194.154,85.857c0.21,1.042-0.451,2.215-1.478,2.488c-0.423,0.112-0.873,0.08-1.298-0.025
							c-0.609-0.15-1.199-0.463-1.56-0.975C187.964,84.719,193.41,82.168,194.154,85.857z"/>
						<path style="fill:#A57BF5;" d="M201.959,96.986c0.21,1.042-0.451,2.215-1.478,2.488c-0.423,0.112-0.873,0.08-1.298-0.025
							c-0.609-0.15-1.199-0.463-1.561-0.975C195.769,95.848,201.215,93.297,201.959,96.986z"/>
					</g>
				</g>
			</g>
		</g>
		<g>
			<path style="fill:#865DD3;" d="M101.723,127.368c-15.645,1.959-30.061,12.895-45.668,10.658
				c9.741,12.398,7.479,30.35,13.604,44.879c4.086,9.691,12.072,17.672,21.766,21.751c9.694,4.079,20.984,4.21,30.77,0.355
				c7.708-3.036,15.616-10.581,17.641-18.614c5.944-5.771,8.525-16.391,7.3-24.585c-1.555-10.402-7.313-20.114-15.693-26.469
				C123.063,128.987,112.159,126.061,101.723,127.368z"/>
			<path style="fill:#A57BF5;" d="M111.48,144.761c-10.676,1.337-20.513,8.799-31.163,7.273c6.647,8.46,5.103,20.711,9.283,30.625
				c2.788,6.613,8.238,12.059,14.853,14.843c6.615,2.784,14.319,2.873,20.997,0.243c5.26-2.072,10.656-7.22,12.038-12.702
				c4.056-3.938,5.817-11.185,4.981-16.776c-1.061-7.098-4.99-13.725-10.708-18.063C126.043,145.866,118.602,143.869,111.48,144.761
				z"/>
			<path style="fill:#B994FF;" d="M113.78,152.561c-7.941,0.995-15.258,6.545-23.179,5.41c4.944,6.293,3.796,15.405,6.905,22.779
				c2.074,4.919,6.128,8.97,11.048,11.04c4.92,2.07,10.651,2.137,15.618,0.18c3.912-1.541,7.926-5.37,8.954-9.448
				c3.017-2.929,4.327-8.32,3.705-12.478c-0.789-5.28-3.712-10.209-7.965-13.435C124.612,153.383,119.077,151.898,113.78,152.561z"
				/>
			<path style="fill:#C7ABFF;" d="M119.427,161.215c-5.662,0.709-10.879,4.667-16.527,3.857c3.525,4.487,2.706,10.984,4.923,16.241
				c1.479,3.507,4.369,6.395,7.877,7.872c3.508,1.476,7.594,1.523,11.135,0.129c2.79-1.099,5.651-3.829,6.384-6.736
				c2.151-2.088,3.085-5.932,2.642-8.897c-0.563-3.764-2.646-7.279-5.679-9.579C127.15,161.801,123.204,160.742,119.427,161.215z"/>
			<g>
				<path style="fill:#A57BF5;" d="M70.773,150.808c1.777,0.358,3.779-0.769,4.244-2.521c0.191-0.721,0.136-1.49-0.042-2.214
					c-0.255-1.038-0.79-2.046-1.663-2.662C68.83,140.249,64.479,149.539,70.773,150.808z"/>
				<g>
					<g>
						<path style="fill:#A57BF5;" d="M73.74,165.557c1.454,0.293,3.092-0.629,3.473-2.063c0.157-0.59,0.111-1.219-0.035-1.812
							c-0.209-0.85-0.646-1.674-1.361-2.178C72.15,156.917,68.589,164.519,73.74,165.557z"/>
						<path style="fill:#A57BF5;" d="M78.079,181.344c1.454,0.293,3.092-0.629,3.473-2.063c0.157-0.59,0.111-1.219-0.035-1.812
							c-0.209-0.85-0.646-1.674-1.361-2.179C76.49,172.703,72.929,180.305,78.079,181.344z"/>
						<path style="fill:#A57BF5;" d="M85.857,194.154c1.042,0.21,2.215-0.451,2.488-1.478c0.112-0.423,0.08-0.873-0.025-1.298
							c-0.15-0.609-0.463-1.199-0.975-1.561C84.719,187.965,82.168,193.41,85.857,194.154z"/>
						<path style="fill:#A57BF5;" d="M96.986,201.959c1.042,0.21,2.215-0.451,2.488-1.478c0.112-0.423,0.08-0.873-0.025-1.298
							c-0.15-0.609-0.463-1.199-0.975-1.561C95.848,195.77,93.297,201.215,96.986,201.959z"/>
					</g>
					<g>
						<path style="fill:#A57BF5;" d="M88.74,139.576c0.981,1.113,1.001,2.993-0.05,4.039c-0.433,0.431-1,0.706-1.587,0.876
							c-0.84,0.244-1.773,0.277-2.567-0.09C80.463,142.52,85.266,135.635,88.74,139.576z"/>
						<path style="fill:#A57BF5;" d="M104.581,135.44c0.981,1.113,1.001,2.992-0.05,4.039c-0.433,0.431-1,0.706-1.587,0.876
							c-0.84,0.244-1.773,0.277-2.567-0.09C96.304,138.384,101.107,131.499,104.581,135.44z"/>
						<path style="fill:#A57BF5;" d="M119.564,135.771c0.703,0.797,0.717,2.144-0.036,2.893c-0.31,0.309-0.717,0.506-1.137,0.628
							c-0.602,0.175-1.27,0.199-1.839-0.064C113.635,137.88,117.075,132.948,119.564,135.771z"/>
						<path style="fill:#A57BF5;" d="M131.888,141.507c0.703,0.797,0.717,2.144-0.036,2.893c-0.31,0.309-0.716,0.506-1.137,0.628
							c-0.602,0.175-1.27,0.199-1.839-0.064C125.959,143.615,129.399,138.684,131.888,141.507z"/>
					</g>
				</g>
			</g>
		</g>
		<g>
			<path style="fill:#865DD3;" d="M60.272,217.936C47.703,227.455,40.686,244.134,26.051,250
				c14.635,5.866,21.652,22.545,34.221,32.064c8.384,6.35,19.291,9.268,29.726,7.954c10.435-1.314,20.277-6.846,26.825-15.077
				c5.158-6.483,8.233-16.971,5.971-24.941c2.263-7.969-0.813-18.457-5.971-24.941c-6.548-8.231-16.39-13.762-26.825-15.077
				C79.563,208.668,68.656,211.586,60.272,217.936z"/>
			<path style="fill:#A57BF5;" d="M77.419,228.12c-8.577,6.496-13.365,17.877-23.352,21.88c9.987,4.003,14.775,15.384,23.352,21.88
				c5.721,4.333,13.164,6.324,20.285,5.427c7.121-0.897,13.837-4.672,18.305-10.288c3.52-4.424,5.618-11.581,4.074-17.019
				c1.544-5.438-0.555-12.595-4.074-17.019c-4.468-5.617-11.184-9.391-18.305-10.288C90.583,221.796,83.14,223.787,77.419,228.12z"
				/>
			<path style="fill:#B994FF;" d="M83.311,233.726c-6.38,4.832-9.941,13.297-17.369,16.274c7.428,2.978,10.99,11.443,17.369,16.275
				c4.256,3.223,9.791,4.704,15.088,4.037c5.296-0.667,10.292-3.475,13.615-7.652c2.618-3.291,4.179-8.614,3.031-12.659
				c1.148-4.045-0.413-9.368-3.031-12.659c-3.323-4.178-8.319-6.985-13.615-7.652C93.102,229.021,87.567,230.503,83.311,233.726z"/>
			<path style="fill:#C7ABFF;" d="M92.528,238.396c-4.549,3.445-7.088,9.481-12.384,11.604c5.296,2.123,7.836,8.159,12.384,11.604
				c3.034,2.298,6.981,3.354,10.758,2.878c3.776-0.476,7.338-2.478,9.708-5.456c1.867-2.346,2.98-6.142,2.161-9.026
				c0.819-2.884-0.294-6.68-2.161-9.026c-2.369-2.979-5.931-4.981-9.708-5.456C99.509,235.042,95.562,236.098,92.528,238.396z"/>
			<g>
				<path style="fill:#A57BF5;" d="M45.188,253.711c1.718-0.578,2.888-2.555,2.415-4.305c-0.195-0.72-0.627-1.358-1.144-1.897
					c-0.74-0.771-1.707-1.377-2.772-1.474C38.227,245.538,39.103,255.759,45.188,253.711z"/>
				<g>
					<g>
						<path style="fill:#A57BF5;" d="M55.133,265.001c1.406-0.473,2.363-2.091,1.976-3.523c-0.159-0.589-0.513-1.111-0.936-1.552
							c-0.606-0.631-1.397-1.127-2.268-1.206C49.436,258.313,50.153,266.676,55.133,265.001z"/>
						<path style="fill:#A57BF5;" d="M66.784,276.503c1.406-0.473,2.364-2.091,1.976-3.523c-0.159-0.589-0.513-1.111-0.936-1.552
							c-0.606-0.631-1.397-1.127-2.268-1.206C61.087,269.814,61.804,278.178,66.784,276.503z"/>
						<path style="fill:#A57BF5;" d="M79.925,283.707c1.007-0.339,1.693-1.498,1.416-2.524c-0.114-0.422-0.368-0.796-0.671-1.112
							c-0.434-0.452-1.001-0.807-1.625-0.864C75.845,278.916,76.358,284.908,79.925,283.707z"/>
						<path style="fill:#A57BF5;" d="M93.465,284.902c1.007-0.339,1.693-1.498,1.416-2.524c-0.114-0.422-0.368-0.796-0.671-1.112
							c-0.434-0.452-1.001-0.807-1.625-0.864C89.385,280.111,89.898,286.103,93.465,284.902z"/>
					</g>
					<g>
						<path style="fill:#A57BF5;" d="M55.133,235c1.406,0.473,2.363,2.091,1.976,3.523c-0.159,0.589-0.513,1.111-0.936,1.552
							c-0.606,0.631-1.397,1.127-2.268,1.206C49.436,241.688,50.153,233.324,55.133,235z"/>
						<path style="fill:#A57BF5;" d="M66.784,223.498c1.406,0.473,2.364,2.091,1.976,3.523c-0.159,0.589-0.513,1.111-0.936,1.552
							c-0.606,0.631-1.397,1.127-2.268,1.206C61.087,230.186,61.804,221.822,66.784,223.498z"/>
						<path style="fill:#A57BF5;" d="M79.925,216.293c1.007,0.339,1.693,1.498,1.416,2.524c-0.114,0.422-0.368,0.796-0.671,1.112
							c-0.434,0.452-1.001,0.807-1.625,0.864C75.845,221.084,76.358,215.093,79.925,216.293z"/>
						<path style="fill:#A57BF5;" d="M93.465,215.098c1.007,0.339,1.693,1.498,1.416,2.524c-0.114,0.422-0.368,0.796-0.671,1.112
							c-0.434,0.452-1.001,0.807-1.625,0.864C89.385,219.889,89.898,213.898,93.465,215.098z"/>
					</g>
				</g>
			</g>
		</g>
		<g>
			<path style="fill:#865DD3;" d="M69.659,317.096c-6.126,14.528-3.863,32.481-13.604,44.878
				c15.608-2.237,30.023,8.699,45.668,10.658c10.436,1.307,21.34-1.619,29.72-7.975c8.38-6.356,14.138-16.068,15.693-26.47
				c1.225-8.193-1.355-18.814-7.3-24.585c-2.025-8.033-9.933-15.578-17.641-18.614c-9.786-3.854-21.075-3.724-30.77,0.355
				C81.731,299.424,73.745,307.405,69.659,317.096z"/>
			<path style="fill:#A57BF5;" d="M89.6,317.342c-4.18,9.914-2.636,22.165-9.283,30.625c10.65-1.527,20.488,5.936,31.163,7.273
				c7.121,0.892,14.563-1.105,20.281-5.442c5.718-4.337,9.647-10.964,10.708-18.063c0.836-5.591-0.925-12.839-4.981-16.776
				c-1.382-5.482-6.778-10.63-12.038-12.702c-6.678-2.63-14.382-2.541-20.997,0.243C97.838,305.283,92.389,310.729,89.6,317.342z"/>
			<path style="fill:#B994FF;" d="M97.506,319.251c-3.109,7.374-1.961,16.486-6.905,22.779c7.922-1.136,15.239,4.415,23.179,5.409
				c5.297,0.663,10.832-0.822,15.085-4.048c4.253-3.226,7.176-8.155,7.965-13.435c0.622-4.159-0.688-9.549-3.705-12.478
				c-1.028-4.077-5.042-7.907-8.954-9.448c-4.967-1.956-10.697-1.89-15.618,0.181C103.633,310.281,99.58,314.332,97.506,319.251z"/>
			<path style="fill:#C7ABFF;" d="M107.823,318.687c-2.217,5.258-1.398,11.755-4.923,16.241c5.648-0.81,10.865,3.148,16.527,3.857
				c3.777,0.473,7.723-0.586,10.756-2.886c3.033-2.3,5.116-5.815,5.679-9.579c0.443-2.965-0.49-6.809-2.642-8.897
				c-0.733-2.907-3.595-5.638-6.384-6.736c-3.541-1.395-7.627-1.348-11.135,0.129C112.192,312.292,109.302,315.18,107.823,318.687z"
				/>
			<g>
				<path style="fill:#A57BF5;" d="M74.483,355.62c1.199-1.36,1.224-3.657-0.061-4.936c-0.529-0.526-1.223-0.863-1.939-1.07
					c-1.027-0.298-2.167-0.339-3.137,0.109C64.368,352.022,70.237,360.436,74.483,355.62z"/>
				<g>
					<g>
						<path style="fill:#A57BF5;" d="M88.74,360.425c0.981-1.113,1.001-2.992-0.05-4.039c-0.433-0.431-1-0.706-1.587-0.876
							c-0.84-0.244-1.773-0.277-2.567,0.09C80.463,357.481,85.266,364.366,88.74,360.425z"/>
						<path style="fill:#A57BF5;" d="M104.581,364.56c0.981-1.113,1.001-2.992-0.05-4.039c-0.433-0.431-1-0.706-1.587-0.876
							c-0.84-0.244-1.773-0.277-2.567,0.09C96.304,361.616,101.107,368.501,104.581,364.56z"/>
						<path style="fill:#A57BF5;" d="M119.564,364.229c0.703-0.797,0.717-2.144-0.036-2.893c-0.31-0.309-0.717-0.506-1.137-0.627
							c-0.602-0.175-1.27-0.199-1.839,0.064C113.635,362.12,117.075,367.052,119.564,364.229z"/>
						<path style="fill:#A57BF5;" d="M131.888,358.494c0.703-0.797,0.717-2.144-0.036-2.893c-0.31-0.309-0.716-0.506-1.137-0.628
							c-0.602-0.175-1.27-0.199-1.839,0.064C125.959,356.385,129.399,361.317,131.888,358.494z"/>
					</g>
					<g>
						<path style="fill:#A57BF5;" d="M73.74,334.443c1.454-0.293,3.092,0.629,3.473,2.063c0.157,0.59,0.111,1.219-0.035,1.812
							c-0.209,0.85-0.646,1.674-1.361,2.179C72.15,343.083,68.589,335.482,73.74,334.443z"/>
						<path style="fill:#A57BF5;" d="M78.079,318.657c1.454-0.293,3.092,0.629,3.473,2.063c0.157,0.59,0.111,1.219-0.035,1.812
							c-0.209,0.85-0.646,1.674-1.361,2.179C76.49,327.297,72.929,319.695,78.079,318.657z"/>
						<path style="fill:#A57BF5;" d="M85.857,305.846c1.042-0.21,2.215,0.451,2.488,1.478c0.112,0.423,0.08,0.873-0.025,1.298
							c-0.15,0.609-0.463,1.199-0.975,1.56C84.719,312.036,82.168,306.59,85.857,305.846z"/>
						<path style="fill:#A57BF5;" d="M96.986,298.042c1.042-0.21,2.215,0.451,2.488,1.478c0.112,0.423,0.08,0.873-0.025,1.298
							c-0.15,0.609-0.463,1.199-0.975,1.561C95.848,304.231,93.297,298.785,96.986,298.042z"/>
					</g>
				</g>
			</g>
		</g>
		<g>
			<path style="fill:#865DD3;" d="M127.368,398.278c1.959,15.645,12.895,30.061,10.658,45.668
				c12.398-9.741,30.35-7.478,44.878-13.604c9.691-4.086,17.672-12.072,21.751-21.767c4.079-9.694,4.21-20.984,0.355-30.77
				c-3.036-7.708-10.581-15.616-18.614-17.641c-5.771-5.944-16.391-8.525-24.585-7.3c-10.402,1.555-20.114,7.313-26.469,15.693
				C128.987,376.937,126.061,387.842,127.368,398.278z"/>
			<path style="fill:#A57BF5;" d="M144.761,388.52c1.337,10.676,8.799,20.513,7.273,31.163c8.46-6.647,20.711-5.103,30.625-9.283
				c6.613-2.788,12.059-8.238,14.843-14.853s2.873-14.319,0.243-20.997c-2.072-5.26-7.22-10.656-12.702-12.038
				c-3.938-4.056-11.185-5.817-16.776-4.981c-7.098,1.061-13.725,4.99-18.063,10.709
				C145.865,373.957,143.869,381.398,144.761,388.52z"/>
			<path style="fill:#B994FF;" d="M152.561,386.22c0.994,7.941,6.545,15.258,5.41,23.179c6.293-4.944,15.405-3.796,22.779-6.905
				c4.919-2.074,8.97-6.128,11.04-11.048c2.07-4.92,2.137-10.651,0.18-15.618c-1.541-3.912-5.37-7.926-9.448-8.954
				c-2.929-3.017-8.319-4.327-12.478-3.705c-5.28,0.789-10.209,3.712-13.435,7.965C153.383,375.388,151.898,380.923,152.561,386.22z
				"/>
			<path style="fill:#C7ABFF;" d="M161.215,380.573c0.709,5.662,4.667,10.879,3.857,16.527c4.487-3.525,10.984-2.706,16.241-4.923
				c3.507-1.479,6.395-4.369,7.872-7.877c1.476-3.508,1.523-7.594,0.129-11.135c-1.099-2.79-3.829-5.651-6.736-6.384
				c-2.088-2.151-5.932-3.085-8.897-2.642c-3.764,0.563-7.279,2.647-9.579,5.679C161.801,372.85,160.742,376.796,161.215,380.573z"
				/>
			<g>
				<path style="fill:#A57BF5;" d="M150.808,429.228c0.358-1.777-0.769-3.779-2.521-4.244c-0.721-0.191-1.49-0.136-2.215,0.042
					c-1.038,0.255-2.046,0.79-2.662,1.663C140.249,431.17,149.539,435.522,150.808,429.228z"/>
				<g>
					<g>
						<path style="fill:#A57BF5;" d="M165.557,426.26c0.293-1.454-0.629-3.092-2.063-3.473c-0.59-0.157-1.219-0.111-1.812,0.035
							c-0.85,0.209-1.674,0.646-2.179,1.361C156.917,427.85,164.519,431.411,165.557,426.26z"/>
						<path style="fill:#A57BF5;" d="M181.344,421.921c0.293-1.454-0.629-3.092-2.063-3.473c-0.59-0.157-1.219-0.111-1.812,0.035
							c-0.85,0.209-1.674,0.646-2.179,1.361C172.703,423.51,180.305,427.072,181.344,421.921z"/>
						<path style="fill:#A57BF5;" d="M194.154,414.143c0.21-1.042-0.451-2.215-1.478-2.488c-0.423-0.112-0.873-0.08-1.298,0.025
							c-0.609,0.15-1.199,0.463-1.56,0.975C187.964,415.281,193.41,417.832,194.154,414.143z"/>
						<path style="fill:#A57BF5;" d="M201.959,403.014c0.21-1.042-0.451-2.215-1.478-2.488c-0.423-0.112-0.873-0.08-1.298,0.025
							c-0.609,0.15-1.199,0.463-1.561,0.975C195.769,404.153,201.215,406.704,201.959,403.014z"/>
					</g>
					<g>
						<path style="fill:#A57BF5;" d="M139.576,411.26c1.113-0.981,2.992-1.001,4.039,0.05c0.431,0.433,0.706,1,0.876,1.587
							c0.244,0.84,0.277,1.773-0.09,2.567C142.519,419.537,135.635,414.735,139.576,411.26z"/>
						<path style="fill:#A57BF5;" d="M135.44,395.419c1.113-0.981,2.992-1.001,4.039,0.05c0.431,0.433,0.706,1,0.876,1.587
							c0.244,0.84,0.277,1.773-0.09,2.567C138.384,403.696,131.499,398.893,135.44,395.419z"/>
						<path style="fill:#A57BF5;" d="M135.771,380.436c0.797-0.703,2.144-0.717,2.893,0.036c0.309,0.31,0.506,0.717,0.628,1.137
							c0.175,0.602,0.199,1.27-0.064,1.839C137.88,386.365,132.948,382.925,135.771,380.436z"/>
						<path style="fill:#A57BF5;" d="M141.507,368.112c0.797-0.703,2.144-0.717,2.893,0.036c0.309,0.31,0.506,0.717,0.628,1.137
							c0.175,0.602,0.199,1.27-0.064,1.839C143.615,374.042,138.684,370.601,141.507,368.112z"/>
					</g>
				</g>
			</g>
		</g>
		<g>
			<path style="fill:#865DD3;" d="M217.936,439.728c9.519,12.569,26.198,19.586,32.064,34.221
				c5.866-14.635,22.545-21.652,32.064-34.221c6.35-8.384,9.268-19.291,7.954-29.726c-1.314-10.435-6.846-20.277-15.077-26.825
				c-6.483-5.158-16.971-8.233-24.941-5.971c-7.969-2.263-18.457,0.813-24.941,5.971c-8.231,6.548-13.762,16.39-15.077,26.825
				C208.668,420.437,211.586,431.344,217.936,439.728z"/>
			<path style="fill:#A57BF5;" d="M228.12,422.581c6.496,8.577,17.877,13.365,21.88,23.352c4.003-9.987,15.384-14.775,21.88-23.352
				c4.333-5.721,6.324-13.164,5.428-20.285c-0.897-7.121-4.672-13.837-10.288-18.305c-4.424-3.52-11.581-5.618-17.019-4.074
				c-5.438-1.544-12.595,0.555-17.019,4.074c-5.617,4.468-9.391,11.184-10.288,18.305
				C221.795,409.417,223.787,416.86,228.12,422.581z"/>
			<path style="fill:#B994FF;" d="M233.726,416.689c4.832,6.38,13.297,9.941,16.274,17.369c2.977-7.428,11.443-10.99,16.275-17.369
				c3.223-4.256,4.704-9.791,4.037-15.088c-0.667-5.296-3.475-10.292-7.652-13.615c-3.291-2.618-8.614-4.179-12.659-3.03
				c-4.045-1.148-9.368,0.413-12.659,3.03c-4.178,3.323-6.985,8.319-7.652,13.615C229.021,406.898,230.503,412.434,233.726,416.689z
				"/>
			<path style="fill:#C7ABFF;" d="M238.396,407.472c3.445,4.549,9.481,7.088,11.604,12.384c2.123-5.296,8.159-7.836,11.604-12.384
				c2.298-3.034,3.354-6.981,2.878-10.758c-0.476-3.776-2.478-7.338-5.456-9.708c-2.346-1.867-6.142-2.98-9.026-2.161
				c-2.884-0.819-6.68,0.294-9.026,2.161c-2.979,2.37-4.981,5.931-5.456,9.708C235.042,400.491,236.098,404.438,238.396,407.472z"/>
			<g>
				<path style="fill:#A57BF5;" d="M253.711,454.812c-0.578-1.718-2.555-2.888-4.305-2.415c-0.72,0.195-1.358,0.627-1.897,1.144
					c-0.771,0.74-1.377,1.707-1.474,2.772C245.538,461.773,255.759,460.897,253.711,454.812z"/>
				<g>
					<g>
						<path style="fill:#A57BF5;" d="M265.001,444.867c-0.473-1.406-2.091-2.363-3.523-1.976c-0.589,0.159-1.111,0.513-1.552,0.936
							c-0.631,0.606-1.127,1.397-1.206,2.268C258.313,450.564,266.676,449.847,265.001,444.867z"/>
						<path style="fill:#A57BF5;" d="M276.502,433.216c-0.473-1.406-2.091-2.364-3.523-1.976c-0.589,0.159-1.111,0.513-1.552,0.936
							c-0.631,0.606-1.127,1.397-1.206,2.268C269.814,438.913,278.178,438.196,276.502,433.216z"/>
						<path style="fill:#A57BF5;" d="M283.707,420.075c-0.339-1.007-1.498-1.693-2.524-1.416c-0.422,0.114-0.796,0.368-1.112,0.671
							c-0.452,0.434-0.807,1.001-0.864,1.625C278.916,424.156,284.908,423.642,283.707,420.075z"/>
						<path style="fill:#A57BF5;" d="M284.902,406.535c-0.339-1.007-1.498-1.693-2.524-1.416c-0.422,0.114-0.796,0.368-1.112,0.671
							c-0.452,0.434-0.807,1.001-0.864,1.625C280.111,410.615,286.103,410.102,284.902,406.535z"/>
					</g>
					<g>
						<path style="fill:#A57BF5;" d="M234.999,444.867c0.473-1.406,2.091-2.363,3.523-1.976c0.589,0.159,1.111,0.513,1.552,0.936
							c0.631,0.606,1.127,1.397,1.206,2.268C241.688,450.564,233.324,449.847,234.999,444.867z"/>
						<path style="fill:#A57BF5;" d="M223.498,433.216c0.473-1.406,2.091-2.364,3.523-1.976c0.589,0.159,1.111,0.513,1.552,0.936
							c0.631,0.606,1.127,1.397,1.206,2.268C230.186,438.913,221.822,438.196,223.498,433.216z"/>
						<path style="fill:#A57BF5;" d="M216.293,420.075c0.339-1.007,1.498-1.693,2.524-1.416c0.422,0.114,0.796,0.368,1.112,0.671
							c0.452,0.434,0.807,1.001,0.864,1.625C221.084,424.156,215.093,423.642,216.293,420.075z"/>
						<path style="fill:#A57BF5;" d="M215.098,406.535c0.339-1.007,1.498-1.693,2.524-1.416c0.422,0.114,0.796,0.368,1.112,0.671
							c0.452,0.434,0.807,1.001,0.864,1.625C219.889,410.615,213.898,410.102,215.098,406.535z"/>
					</g>
				</g>
			</g>
		</g>
		<g>
			<path style="fill:#865DD3;" d="M317.096,430.341c14.528,6.126,32.481,3.863,44.878,13.604
				c-2.237-15.607,8.699-30.023,10.658-45.668c1.307-10.436-1.619-21.34-7.975-29.72c-6.356-8.38-16.068-14.138-26.47-15.693
				c-8.193-1.225-18.814,1.355-24.585,7.3c-8.033,2.025-15.578,9.933-18.614,17.641c-3.854,9.786-3.724,21.075,0.356,30.77
				C299.424,418.269,307.405,426.255,317.096,430.341z"/>
			<path style="fill:#A57BF5;" d="M317.342,410.4c9.914,4.18,22.165,2.636,30.625,9.283c-1.527-10.651,5.936-20.488,7.273-31.163
				c0.892-7.121-1.105-14.563-5.442-20.281c-4.337-5.718-10.964-9.647-18.063-10.709c-5.591-0.836-12.839,0.925-16.776,4.981
				c-5.482,1.382-10.63,6.778-12.702,12.038c-2.63,6.678-2.541,14.382,0.243,20.997S310.729,407.612,317.342,410.4z"/>
			<path style="fill:#B994FF;" d="M319.25,402.494c7.374,3.109,16.486,1.961,22.779,6.905c-1.135-7.922,4.415-15.239,5.41-23.179
				c0.663-5.297-0.822-10.832-4.048-15.085c-3.226-4.253-8.155-7.176-13.435-7.965c-4.159-0.622-9.549,0.688-12.478,3.705
				c-4.077,1.028-7.907,5.042-9.448,8.954c-1.956,4.967-1.89,10.697,0.18,15.618C310.281,396.367,314.331,400.42,319.25,402.494z"/>
			<path style="fill:#C7ABFF;" d="M318.687,392.177c5.258,2.217,11.755,1.398,16.241,4.923c-0.81-5.648,3.148-10.865,3.857-16.527
				c0.473-3.777-0.586-7.723-2.886-10.756c-2.3-3.033-5.815-5.116-9.579-5.679c-2.965-0.443-6.809,0.491-8.897,2.642
				c-2.907,0.733-5.638,3.595-6.736,6.384c-1.395,3.541-1.348,7.627,0.129,11.135C312.291,387.808,315.18,390.698,318.687,392.177z"
				/>
			<g>
				<path style="fill:#A57BF5;" d="M355.62,425.517c-1.36-1.199-3.657-1.224-4.936,0.061c-0.526,0.529-0.863,1.223-1.07,1.939
					c-0.298,1.027-0.339,2.167,0.109,3.137C352.022,435.632,360.436,429.763,355.62,425.517z"/>
				<g>
					<g>
						<path style="fill:#A57BF5;" d="M360.425,411.26c-1.113-0.981-2.992-1.001-4.039,0.05c-0.431,0.433-0.706,1-0.876,1.587
							c-0.244,0.84-0.277,1.773,0.09,2.567C357.481,419.537,364.365,414.735,360.425,411.26z"/>
						<path style="fill:#A57BF5;" d="M364.56,395.419c-1.113-0.981-2.992-1.001-4.039,0.05c-0.431,0.433-0.706,1-0.876,1.587
							c-0.244,0.84-0.277,1.773,0.09,2.567C361.616,403.696,368.501,398.893,364.56,395.419z"/>
						<path style="fill:#A57BF5;" d="M364.229,380.436c-0.797-0.703-2.144-0.717-2.893,0.036c-0.309,0.31-0.506,0.717-0.628,1.137
							c-0.175,0.602-0.199,1.27,0.064,1.839C362.12,386.365,367.052,382.925,364.229,380.436z"/>
						<path style="fill:#A57BF5;" d="M358.493,368.112c-0.797-0.703-2.144-0.717-2.893,0.036c-0.309,0.31-0.506,0.717-0.628,1.137
							c-0.175,0.602-0.199,1.27,0.064,1.839C356.385,374.042,361.317,370.601,358.493,368.112z"/>
					</g>
					<g>
						<path style="fill:#A57BF5;" d="M334.443,426.26c-0.293-1.454,0.629-3.092,2.063-3.473c0.59-0.157,1.219-0.111,1.812,0.035
							c0.85,0.209,1.674,0.646,2.179,1.361C343.083,427.85,335.482,431.411,334.443,426.26z"/>
						<path style="fill:#A57BF5;" d="M318.656,421.921c-0.293-1.454,0.629-3.092,2.063-3.473c0.59-0.157,1.219-0.111,1.812,0.035
							c0.85,0.209,1.674,0.646,2.179,1.361C327.297,423.51,319.695,427.072,318.656,421.921z"/>
						<path style="fill:#A57BF5;" d="M305.846,414.143c-0.21-1.042,0.451-2.215,1.478-2.488c0.423-0.112,0.873-0.08,1.298,0.025
							c0.609,0.15,1.199,0.463,1.56,0.975C312.036,415.281,306.59,417.832,305.846,414.143z"/>
						<path style="fill:#A57BF5;" d="M298.041,403.014c-0.21-1.042,0.451-2.215,1.478-2.488c0.423-0.112,0.873-0.08,1.298,0.025
							c0.609,0.15,1.199,0.463,1.561,0.975C304.231,404.153,298.785,406.704,298.041,403.014z"/>
					</g>
				</g>
			</g>
		</g>
		<g>
			<path style="fill:#865DD3;" d="M398.277,372.632c15.645-1.959,30.06-12.895,45.668-10.658
				c-9.741-12.398-7.479-30.35-13.604-44.879c-4.086-9.691-12.072-17.672-21.767-21.751c-9.694-4.079-20.984-4.21-30.77-0.355
				c-7.708,3.036-15.616,10.581-17.641,18.614c-5.944,5.771-8.525,16.391-7.3,24.585c1.555,10.402,7.313,20.114,15.693,26.469
				C376.937,371.013,387.842,373.939,398.277,372.632z"/>
			<path style="fill:#A57BF5;" d="M388.52,355.24c10.676-1.337,20.513-8.799,31.164-7.273c-6.647-8.46-5.103-20.711-9.283-30.625
				c-2.788-6.613-8.238-12.059-14.853-14.843c-6.615-2.784-14.319-2.873-20.997-0.243c-5.26,2.072-10.656,7.22-12.038,12.702
				c-4.056,3.938-5.817,11.185-4.981,16.776c1.061,7.098,4.99,13.725,10.709,18.063C373.957,354.135,381.398,356.131,388.52,355.24z
				"/>
			<path style="fill:#B994FF;" d="M386.22,347.439c7.941-0.994,15.258-6.545,23.179-5.409c-4.944-6.293-3.796-15.405-6.905-22.779
				c-2.074-4.919-6.128-8.97-11.048-11.04c-4.92-2.07-10.65-2.137-15.617-0.18c-3.912,1.541-7.926,5.371-8.954,9.448
				c-3.017,2.929-4.327,8.319-3.705,12.478c0.789,5.28,3.712,10.209,7.965,13.435C375.388,346.617,380.923,348.102,386.22,347.439z"
				/>
			<path style="fill:#C7ABFF;" d="M380.573,338.785c5.662-0.709,10.879-4.667,16.527-3.857c-3.525-4.487-2.706-10.984-4.923-16.241
				c-1.479-3.507-4.369-6.395-7.877-7.872c-3.508-1.476-7.594-1.523-11.135-0.129c-2.79,1.099-5.651,3.829-6.384,6.736
				c-2.151,2.088-3.085,5.932-2.642,8.897c0.563,3.764,2.647,7.279,5.679,9.579S376.796,339.258,380.573,338.785z"/>
			<g>
				<path style="fill:#A57BF5;" d="M429.227,349.192c-1.777-0.358-3.779,0.769-4.244,2.521c-0.191,0.721-0.136,1.49,0.042,2.214
					c0.255,1.038,0.79,2.046,1.663,2.662C431.17,359.751,435.521,350.461,429.227,349.192z"/>
				<g>
					<g>
						<path style="fill:#A57BF5;" d="M426.26,334.443c-1.454-0.293-3.092,0.629-3.473,2.063c-0.157,0.59-0.111,1.219,0.035,1.812
							c0.209,0.85,0.646,1.674,1.361,2.179C427.85,343.083,431.411,335.482,426.26,334.443z"/>
						<path style="fill:#A57BF5;" d="M421.921,318.657c-1.454-0.293-3.092,0.629-3.473,2.063c-0.157,0.59-0.111,1.219,0.035,1.812
							c0.209,0.85,0.646,1.674,1.361,2.179C423.51,327.297,427.071,319.695,421.921,318.657z"/>
						<path style="fill:#A57BF5;" d="M414.143,305.846c-1.042-0.21-2.215,0.451-2.488,1.478c-0.112,0.423-0.08,0.873,0.025,1.298
							c0.15,0.609,0.463,1.199,0.975,1.56C415.281,312.036,417.832,306.59,414.143,305.846z"/>
						<path style="fill:#A57BF5;" d="M403.014,298.042c-1.042-0.21-2.215,0.451-2.488,1.478c-0.112,0.423-0.08,0.873,0.025,1.298
							c0.15,0.609,0.463,1.199,0.975,1.561C404.153,304.231,406.703,298.785,403.014,298.042z"/>
					</g>
					<g>
						<path style="fill:#A57BF5;" d="M411.26,360.425c-0.981-1.113-1.001-2.992,0.05-4.039c0.433-0.431,1-0.706,1.587-0.876
							c0.84-0.244,1.773-0.277,2.567,0.09C419.537,357.481,414.734,364.366,411.26,360.425z"/>
						<path style="fill:#A57BF5;" d="M395.419,364.56c-0.981-1.113-1.001-2.992,0.05-4.039c0.433-0.431,1-0.706,1.587-0.876
							c0.84-0.244,1.773-0.277,2.567,0.09C403.696,361.616,398.893,368.501,395.419,364.56z"/>
						<path style="fill:#A57BF5;" d="M380.436,364.229c-0.703-0.797-0.717-2.144,0.036-2.893c0.31-0.309,0.716-0.506,1.137-0.627
							c0.602-0.175,1.27-0.199,1.839,0.064C386.365,362.12,382.925,367.052,380.436,364.229z"/>
						<path style="fill:#A57BF5;" d="M368.112,358.494c-0.703-0.797-0.717-2.144,0.036-2.893c0.31-0.309,0.717-0.506,1.137-0.628
							c0.602-0.175,1.27-0.199,1.839,0.064C374.041,356.385,370.601,361.317,368.112,358.494z"/>
					</g>
				</g>
			</g>
		</g>
		<g>
			<path style="fill:#865DD3;" d="M439.728,282.064c12.569-9.519,19.586-26.198,34.221-32.064
				c-14.635-5.866-21.652-22.545-34.221-32.064c-8.384-6.35-19.291-9.268-29.726-7.954c-10.435,1.314-20.277,6.846-26.825,15.077
				c-5.158,6.483-8.233,16.971-5.971,24.941c-2.263,7.969,0.813,18.457,5.971,24.941c6.548,8.231,16.39,13.763,26.825,15.077
				C420.437,291.332,431.344,288.414,439.728,282.064z"/>
			<path style="fill:#A57BF5;" d="M422.581,271.88c8.577-6.496,13.365-17.877,23.352-21.88c-9.987-4.003-14.775-15.384-23.352-21.88
				c-5.721-4.333-13.164-6.324-20.285-5.428c-7.121,0.897-13.837,4.672-18.305,10.288c-3.52,4.424-5.618,11.581-4.074,17.019
				c-1.544,5.438,0.555,12.595,4.074,17.019c4.468,5.617,11.184,9.391,18.305,10.288C409.417,278.205,416.86,276.213,422.581,271.88
				z"/>
			<path style="fill:#B994FF;" d="M416.689,266.275c6.38-4.832,9.941-13.297,17.369-16.274c-7.428-2.978-10.99-11.443-17.369-16.275
				c-4.256-3.223-9.791-4.704-15.088-4.037c-5.296,0.667-10.292,3.475-13.615,7.652c-2.618,3.291-4.179,8.614-3.03,12.659
				c-1.148,4.045,0.413,9.368,3.03,12.659c3.323,4.178,8.319,6.985,13.615,7.652C406.898,270.979,412.434,269.498,416.689,266.275z"
				/>
			<path style="fill:#C7ABFF;" d="M407.472,261.604c4.549-3.445,7.088-9.481,12.384-11.604c-5.296-2.123-7.836-8.159-12.384-11.604
				c-3.034-2.298-6.981-3.354-10.758-2.878c-3.776,0.476-7.338,2.478-9.708,5.456c-1.867,2.346-2.98,6.142-2.161,9.026
				c-0.819,2.884,0.294,6.68,2.161,9.026c2.37,2.979,5.931,4.981,9.708,5.456S404.438,263.902,407.472,261.604z"/>
			<g>
				<path style="fill:#A57BF5;" d="M454.812,246.289c-1.718,0.578-2.888,2.555-2.415,4.305c0.195,0.72,0.627,1.358,1.144,1.897
					c0.74,0.771,1.707,1.377,2.772,1.474C461.773,254.462,460.897,244.242,454.812,246.289z"/>
				<g>
					<g>
						<path style="fill:#A57BF5;" d="M444.867,235c-1.406,0.473-2.363,2.091-1.976,3.523c0.159,0.589,0.513,1.111,0.936,1.552
							c0.606,0.631,1.397,1.127,2.268,1.206C450.564,241.688,449.847,233.324,444.867,235z"/>
						<path style="fill:#A57BF5;" d="M433.216,223.498c-1.406,0.473-2.364,2.091-1.976,3.523c0.159,0.589,0.513,1.111,0.936,1.552
							c0.606,0.631,1.397,1.127,2.268,1.206C438.913,230.186,438.196,221.822,433.216,223.498z"/>
						<path style="fill:#A57BF5;" d="M420.075,216.293c-1.007,0.339-1.693,1.498-1.416,2.524c0.114,0.422,0.368,0.796,0.671,1.112
							c0.434,0.452,1.001,0.807,1.625,0.864C424.155,221.084,423.642,215.093,420.075,216.293z"/>
						<path style="fill:#A57BF5;" d="M406.535,215.098c-1.007,0.339-1.693,1.498-1.416,2.524c0.114,0.422,0.368,0.796,0.671,1.112
							c0.434,0.452,1.001,0.807,1.625,0.864C410.615,219.889,410.102,213.898,406.535,215.098z"/>
					</g>
					<g>
						<path style="fill:#A57BF5;" d="M444.867,265.001c-1.406-0.473-2.363-2.091-1.976-3.523c0.159-0.589,0.513-1.111,0.936-1.552
							c0.606-0.631,1.397-1.127,2.268-1.206C450.564,258.313,449.847,266.676,444.867,265.001z"/>
						<path style="fill:#A57BF5;" d="M433.216,276.503c-1.406-0.473-2.364-2.091-1.976-3.523c0.159-0.589,0.513-1.111,0.936-1.552
							c0.606-0.631,1.397-1.127,2.268-1.206C438.913,269.814,438.196,278.178,433.216,276.503z"/>
						<path style="fill:#A57BF5;" d="M420.075,283.707c-1.007-0.339-1.693-1.498-1.416-2.524c0.114-0.422,0.368-0.796,0.671-1.112
							c0.434-0.452,1.001-0.807,1.625-0.864C424.155,278.916,423.642,284.908,420.075,283.707z"/>
						<path style="fill:#A57BF5;" d="M406.535,284.902c-1.007-0.339-1.693-1.498-1.416-2.524c0.114-0.422,0.368-0.796,0.671-1.112
							c0.434-0.452,1.001-0.807,1.625-0.864C410.615,280.111,410.102,286.103,406.535,284.902z"/>
					</g>
				</g>
			</g>
		</g>
		<g>
			<path style="fill:#865DD3;" d="M430.341,182.904c6.126-14.528,3.863-32.481,13.604-44.878
				c-15.608,2.237-30.023-8.699-45.668-10.658c-10.436-1.307-21.341,1.619-29.72,7.975c-8.38,6.356-14.138,16.068-15.693,26.469
				c-1.225,8.193,1.355,18.814,7.3,24.585c2.025,8.033,9.933,15.578,17.641,18.614c9.786,3.854,21.075,3.724,30.77-0.355
				C418.269,200.576,426.255,192.595,430.341,182.904z"/>
			<path style="fill:#A57BF5;" d="M410.4,182.658c4.18-9.914,2.636-22.165,9.283-30.625c-10.651,1.527-20.488-5.936-31.164-7.273
				c-7.121-0.892-14.563,1.105-20.281,5.442c-5.718,4.337-9.647,10.964-10.708,18.063c-0.836,5.591,0.925,12.839,4.981,16.776
				c1.382,5.482,6.778,10.63,12.038,12.702c6.678,2.63,14.382,2.541,20.997-0.243C402.162,194.717,407.611,189.272,410.4,182.658z"
				/>
			<path style="fill:#B994FF;" d="M402.494,180.75c3.109-7.374,1.961-16.486,6.905-22.779c-7.922,1.135-15.239-4.415-23.179-5.41
				c-5.297-0.663-10.832,0.822-15.085,4.048c-4.253,3.226-7.176,8.155-7.965,13.435c-0.622,4.159,0.688,9.549,3.705,12.478
				c1.028,4.077,5.041,7.907,8.954,9.448c4.967,1.956,10.697,1.89,15.617-0.18C396.367,189.719,400.42,185.669,402.494,180.75z"/>
			<path style="fill:#C7ABFF;" d="M392.177,181.313c2.217-5.258,1.398-11.755,4.923-16.241c-5.648,0.81-10.865-3.148-16.527-3.857
				c-3.777-0.473-7.723,0.586-10.756,2.886c-3.033,2.3-5.116,5.815-5.679,9.579c-0.443,2.965,0.491,6.809,2.642,8.897
				c0.733,2.907,3.595,5.638,6.384,6.736c3.541,1.395,7.627,1.348,11.135-0.129C387.808,187.709,390.698,184.821,392.177,181.313z"
				/>
			<g>
				<path style="fill:#A57BF5;" d="M425.517,144.381c-1.199,1.36-1.224,3.657,0.061,4.936c0.529,0.526,1.223,0.863,1.939,1.071
					c1.027,0.298,2.167,0.339,3.137-0.109C435.632,147.978,429.763,139.565,425.517,144.381z"/>
				<g>
					<g>
						<path style="fill:#A57BF5;" d="M411.26,139.576c-0.981,1.113-1.001,2.993,0.05,4.039c0.433,0.431,1,0.706,1.587,0.876
							c0.84,0.244,1.773,0.277,2.567-0.09C419.537,142.52,414.734,135.635,411.26,139.576z"/>
						<path style="fill:#A57BF5;" d="M395.419,135.44c-0.981,1.113-1.001,2.992,0.05,4.039c0.433,0.431,1,0.706,1.587,0.876
							c0.84,0.244,1.773,0.277,2.567-0.09C403.696,138.384,398.893,131.499,395.419,135.44z"/>
						<path style="fill:#A57BF5;" d="M380.436,135.771c-0.703,0.797-0.717,2.144,0.036,2.893c0.31,0.309,0.716,0.506,1.137,0.628
							c0.602,0.175,1.27,0.199,1.839-0.064C386.365,137.88,382.925,132.948,380.436,135.771z"/>
						<path style="fill:#A57BF5;" d="M368.112,141.507c-0.703,0.797-0.717,2.144,0.036,2.893c0.31,0.309,0.717,0.506,1.137,0.628
							c0.602,0.175,1.27,0.199,1.839-0.064C374.041,143.615,370.601,138.684,368.112,141.507z"/>
					</g>
					<g>
						<path style="fill:#A57BF5;" d="M426.26,165.557c-1.454,0.293-3.092-0.629-3.473-2.063c-0.157-0.59-0.111-1.219,0.035-1.812
							c0.209-0.85,0.646-1.674,1.361-2.178C427.85,156.917,431.411,164.519,426.26,165.557z"/>
						<path style="fill:#A57BF5;" d="M421.921,181.344c-1.454,0.293-3.092-0.629-3.473-2.063c-0.157-0.59-0.111-1.219,0.035-1.812
							c0.209-0.85,0.646-1.674,1.361-2.179C423.51,172.703,427.071,180.305,421.921,181.344z"/>
						<path style="fill:#A57BF5;" d="M414.143,194.154c-1.042,0.21-2.215-0.451-2.488-1.478c-0.112-0.423-0.08-0.873,0.025-1.298
							c0.15-0.609,0.463-1.199,0.975-1.561C415.281,187.965,417.832,193.41,414.143,194.154z"/>
						<path style="fill:#A57BF5;" d="M403.014,201.959c-1.042,0.21-2.215-0.451-2.488-1.478c-0.112-0.423-0.08-0.873,0.025-1.298
							c0.15-0.609,0.463-1.199,0.975-1.561C404.153,195.77,406.703,201.215,403.014,201.959z"/>
					</g>
				</g>
			</g>
		</g>
		<g>
			<path style="fill:#865DD3;" d="M372.632,101.723c-1.959-15.645-12.895-30.06-10.658-45.668
				c-12.398,9.741-30.35,7.479-44.879,13.604c-9.691,4.086-17.672,12.072-21.751,21.766c-4.079,9.694-4.21,20.984-0.356,30.77
				c3.036,7.708,10.581,15.616,18.614,17.641c5.771,5.944,16.391,8.525,24.585,7.3c10.402-1.555,20.114-7.313,26.47-15.693
				C371.013,123.063,373.939,112.159,372.632,101.723z"/>
			<path style="fill:#A57BF5;" d="M355.239,111.48c-1.337-10.676-8.799-20.513-7.273-31.163c-8.46,6.647-20.711,5.103-30.625,9.283
				c-6.613,2.788-12.059,8.238-14.843,14.853c-2.784,6.615-2.873,14.319-0.243,20.997c2.072,5.26,7.22,10.656,12.702,12.038
				c3.938,4.056,11.185,5.817,16.776,4.981c7.098-1.061,13.725-4.99,18.063-10.709C354.135,126.043,356.131,118.602,355.239,111.48z
				"/>
			<path style="fill:#B994FF;" d="M347.439,113.78c-0.995-7.941-6.545-15.257-5.409-23.179c-6.293,4.944-15.405,3.796-22.779,6.905
				c-4.919,2.074-8.97,6.128-11.04,11.048c-2.07,4.92-2.137,10.651-0.18,15.618c1.541,3.912,5.37,7.926,9.448,8.954
				c2.929,3.017,8.32,4.327,12.478,3.705c5.28-0.789,10.209-3.712,13.435-7.965C346.617,124.612,348.102,119.077,347.439,113.78z"/>
			<path style="fill:#C7ABFF;" d="M338.785,119.427c-0.709-5.662-4.667-10.879-3.857-16.527c-4.487,3.525-10.984,2.706-16.241,4.923
				c-3.507,1.479-6.395,4.369-7.872,7.877c-1.476,3.508-1.523,7.594-0.129,11.135c1.099,2.79,3.829,5.651,6.736,6.384
				c2.088,2.151,5.932,3.085,8.897,2.642c3.764-0.563,7.279-2.646,9.579-5.679C338.199,127.15,339.258,123.204,338.785,119.427z"/>
			<g>
				<path style="fill:#A57BF5;" d="M349.192,70.773c-0.358,1.777,0.769,3.779,2.521,4.244c0.721,0.191,1.49,0.136,2.214-0.042
					c1.038-0.255,2.046-0.79,2.662-1.663C359.751,68.831,350.461,64.479,349.192,70.773z"/>
				<g>
					<g>
						<path style="fill:#A57BF5;" d="M334.443,73.74c-0.293,1.454,0.629,3.092,2.063,3.473c0.59,0.157,1.219,0.111,1.812-0.035
							c0.85-0.209,1.674-0.646,2.179-1.361C343.083,72.151,335.482,68.59,334.443,73.74z"/>
						<path style="fill:#A57BF5;" d="M318.656,78.079c-0.293,1.454,0.629,3.092,2.063,3.473c0.59,0.157,1.219,0.111,1.812-0.035
							c0.85-0.209,1.674-0.646,2.179-1.361C327.297,76.49,319.695,72.929,318.656,78.079z"/>
						<path style="fill:#A57BF5;" d="M305.846,85.857c-0.21,1.042,0.451,2.215,1.478,2.488c0.423,0.112,0.873,0.08,1.298-0.025
							c0.609-0.15,1.199-0.463,1.56-0.975C312.036,84.719,306.59,82.168,305.846,85.857z"/>
						<path style="fill:#A57BF5;" d="M298.041,96.986c-0.21,1.042,0.451,2.215,1.478,2.488c0.423,0.112,0.873,0.08,1.298-0.025
							c0.609-0.15,1.199-0.463,1.561-0.975C304.231,95.848,298.785,93.297,298.041,96.986z"/>
					</g>
					<g>
						<path style="fill:#A57BF5;" d="M360.425,88.74c-1.113,0.981-2.992,1.002-4.039-0.05c-0.431-0.433-0.706-1-0.876-1.587
							c-0.244-0.84-0.277-1.773,0.09-2.567C357.481,80.463,364.365,85.266,360.425,88.74z"/>
						<path style="fill:#A57BF5;" d="M364.56,104.581c-1.113,0.981-2.992,1.001-4.039-0.05c-0.431-0.433-0.706-1-0.876-1.587
							c-0.244-0.84-0.277-1.773,0.09-2.567C361.616,96.304,368.501,101.107,364.56,104.581z"/>
						<path style="fill:#A57BF5;" d="M364.229,119.564c-0.797,0.703-2.144,0.717-2.893-0.036c-0.309-0.31-0.506-0.716-0.628-1.136
							c-0.175-0.602-0.199-1.27,0.064-1.839C362.12,113.635,367.052,117.076,364.229,119.564z"/>
						<path style="fill:#A57BF5;" d="M358.493,131.888c-0.797,0.703-2.144,0.717-2.893-0.036c-0.309-0.31-0.506-0.717-0.628-1.137
							c-0.175-0.602-0.199-1.27,0.064-1.839C356.385,125.959,361.317,129.399,358.493,131.888z"/>
					</g>
				</g>
			</g>
		</g>
		<path style="fill:#FFFFFF;" d="M409.316,250c0-25.132-19.328-45.737-43.928-47.795c15.94-18.85,15.037-47.087-2.734-64.858
			c-17.771-17.771-46.008-18.674-64.858-2.734c-2.058-24.6-22.663-43.928-47.795-43.928s-45.737,19.328-47.795,43.928
			c-18.85-15.94-47.087-15.037-64.858,2.734c-17.771,17.771-18.674,46.008-2.734,64.858c-24.6,2.058-43.928,22.663-43.928,47.795
			c0,25.132,19.328,45.737,43.928,47.795c-15.94,18.85-15.037,47.087,2.734,64.858c17.771,17.771,46.008,18.674,64.858,2.734
			c2.058,24.6,22.663,43.928,47.795,43.928s45.737-19.328,47.795-43.928c18.85,15.94,47.087,15.037,64.858-2.734
			c17.771-17.771,18.674-46.008,2.734-64.858C389.988,295.737,409.316,275.132,409.316,250z"/>
		<path style="fill:none;stroke:#A883F2;stroke-width:4;stroke-miterlimit:10;" d="M398.239,250
			c0-23.385-17.984-42.557-40.874-44.472c14.832-17.54,13.991-43.813-2.544-60.349s-42.809-17.376-60.349-2.544
			c-1.915-22.89-21.087-40.874-44.472-40.874c-23.385,0-42.557,17.984-44.472,40.874c-17.54-14.831-43.813-13.991-60.349,2.544
			s-17.376,42.809-2.544,60.349c-22.89,1.915-40.874,21.087-40.874,44.472c0,23.385,17.984,42.557,40.874,44.472
			c-14.831,17.54-13.991,43.813,2.544,60.349c16.535,16.535,42.809,17.376,60.349,2.544c1.915,22.89,21.087,40.874,44.472,40.874
			c23.385,0,42.557-17.984,44.472-40.874c17.54,14.832,43.813,13.991,60.349-2.544c16.535-16.536,17.376-42.809,2.544-60.349
			C380.255,292.557,398.239,273.385,398.239,250z"/>
		<path style="fill:none;stroke:#A883F2;stroke-width:3;stroke-miterlimit:10;" d="M388.585,250
			c0-21.862-16.813-39.786-38.212-41.576c13.866-16.397,13.08-40.96-2.379-56.418c-15.459-15.459-40.021-16.244-56.418-2.379
			c-1.79-21.399-19.714-38.212-41.576-38.212c-21.862,0-39.785,16.813-41.576,38.212c-16.397-13.866-40.96-13.08-56.418,2.379
			s-16.244,40.021-2.379,56.418c-21.399,1.79-38.212,19.714-38.212,41.576c0,21.862,16.813,39.786,38.212,41.576
			c-13.866,16.397-13.08,40.96,2.379,56.418c15.459,15.459,40.021,16.244,56.418,2.379c1.79,21.399,19.714,38.212,41.576,38.212
			c21.862,0,39.785-16.813,41.576-38.212c16.397,13.866,40.96,13.08,56.418-2.379c15.459-15.459,16.244-40.021,2.379-56.418
			C371.772,289.786,388.585,271.862,388.585,250z"/>
		<path style="fill:none;stroke:#A883F2;stroke-width:3;stroke-miterlimit:10;" d="M250,111.416"/>
		<g>
			<path style="fill:#865DD3;" d="M170.415,200.262c3.224,8.536,6.448,17.071,9.672,25.606c10.6-12.807,27.939-19.934,44.435-17.869
				c3.429,0.429,6.88,1.244,9.821,3.058c2.942,1.813,5.331,4.746,5.854,8.162c0.85,5.549-3.253,10.665-7.794,13.966
				c-10.178,7.4-23.986,9.526-35.918,5.53c2.975,9.895,8.037,19.774,11.011,29.669c5.213-1.163,10.95-2.146,16.287-1.93
				c5.337,0.216,10.823,1.982,14.466,5.889c4.556,4.885,5.456,12.379,3.698,18.824c-2.9,10.629-12.406,18.806-23.106,21.428
				c-10.701,2.622-22.275,0.118-31.762-5.484c-9.487-5.602-17.021-14.095-22.818-23.464c-5.797-9.369-9.965-19.641-13.858-29.948
				c-1.416,14.81,2.698,30.199,7.934,44.124c3.271,8.7,7.047,17.414,13.195,24.386c6.309,7.154,14.815,12.092,23.731,15.479
				c8.6,3.267,17.8,5.202,26.988,4.751c9.189-0.451,18.372-3.389,25.595-9.086c7.101-5.602,12.06-13.685,14.565-22.376
				c3.431-11.901,2.265-25.18-3.741-36.012c-6.006-10.832-16.915-18.962-29.128-21.023c9.934-4.375,18.685-13.291,22.826-23.325
				c4.141-10.034,3.558-22.119-2.363-31.217c-7.767-11.933-23.277-17.012-37.465-15.81
				C198.354,184.79,182.83,193.29,170.415,200.262z"/>
			<path style="fill:#865DD3;" d="M275.693,281.593c-1.271,11.564,1.804,23.781,9.376,32.612
				c7.573,8.831,19.802,13.802,31.226,11.601c10.776-2.076,19.749-10.105,25.038-19.721c5.289-9.615,7.307-20.695,8.143-31.638
				c0.742-9.713,0.604-19.587-1.693-29.054c-2.297-9.467-6.87-18.548-14.018-25.166c-9.147-8.468-22.352-12.34-34.623-10.152
				c-12.271,2.188-23.324,10.386-28.98,21.494c-3.261,6.405-4.816,13.669-8.839,19.626c-5.048,7.475-13.939,12.198-22.959,12.196
				c2.025,2.528,4.818,4.913,7.826,6.115c9.05,3.619,20.991,0.012,29.007-5.534c6.138-4.247,10.682-10.364,15.194-16.309
				c4.513-5.945,9.25-11.958,15.611-15.861s14.765-5.328,21.286-1.697c5.216,2.904,8.392,8.483,10.346,14.124
				c4.001,11.548,3.782,24.751-1.778,35.634c-5.56,10.883-16.734,19.023-28.933,19.766
				C294.725,300.373,280.025,293.021,275.693,281.593z"/>
			<path style="fill:#865DD3;" d="M330.845,185.13c-6.904,8.524-17.262,13.534-27.725,16.827
				c-10.514,3.309-22.064,5.113-32.454,1.432c-9.17-3.249-16.503-10.519-21.501-18.866c-4.997-8.347-7.135-18.101-9.607-27.509
				c4.448,9.908,11.528,19.146,21.465,23.532c9.108,4.02,19.762,3.523,29.17,0.268c9.409-3.254,17.728-9.067,25.344-15.479
				L330.845,185.13z"/>
			
				<rect x="262.968" y="148.507" transform="matrix(0.7071 -0.7071 0.7071 0.7071 -32.848 241.1742)" style="fill:#865DD3;" width="23.462" height="23.462"/>
			<path style="fill:#424242;" d="M231.099,188.825c-15.913-4.075-33.545-0.847-46.982,8.602
				C199.037,193.211,215.676,190.397,231.099,188.825z"/>
			<path style="fill:#424242;" d="M311.777,211.889c-15.746-0.509-31.37,9.017-38.13,23.247
				C283.874,223.862,297.295,216.576,311.777,211.889z"/>
			<path style="fill:#424242;" d="M214.365,317.209c-18.158,1.402-36.753-7.782-46.676-23.054
				c3.294,9.062,9.907,16.851,18.574,21.074C194.931,319.454,205.198,320.198,214.365,317.209z"/>
			<path style="fill:#424242;" d="M326.167,296.083c-5.277,4.675-12.207,7.445-19.252,7.695c-7.045,0.251-14.154-2.019-19.751-6.307
				c4.773,5.8,11.872,9.851,19.378,9.531C314.047,306.683,321.905,302.269,326.167,296.083z"/>
			<path style="fill:#424242;" d="M300.464,180.752c-12.737,7.721-29.472,8.365-42.765,1.646c5.534,5.735,13.418,8.38,21.367,7.819
				C287.017,189.657,294.169,185.639,300.464,180.752z"/>
			<path style="fill:#865DD3;" d="M335.741,274.284c3.62-12.419,1.854-26.31-4.76-37.428
				C333.642,248.927,335.187,261.936,335.741,274.284z"/>
			<path style="fill:#865DD3;" d="M230.797,211.87c-10.573-2.98-22.262-1.791-32.018,3.258
				C209.186,213.638,220.287,212.129,230.797,211.87z"/>
			<path style="fill:#865DD3;" d="M256.298,223.141c-0.688,10.202-6.084,19.99-14.343,26.018
				C253.23,245.361,258.266,236.15,256.298,223.141z"/>
			<path style="fill:#865DD3;" d="M266.688,305.833c-0.695,8.422-4.137,16.595-9.675,22.978
				c-5.538,6.383-13.144,10.943-21.384,12.819c8.65-0.109,17.376-3.283,23.225-9.657
				C264.704,325.599,267.319,314.461,266.688,305.833z"/>
			<path style="fill:#865DD3;" d="M331.824,189.257c-7.421,7.49-17.051,12.764-27.359,14.982
				C315.487,205.648,326.785,199.16,331.824,189.257z"/>
		</g>
	</g>
</g>
</svg>
